<?xml version="1.0" encoding="UTF-8" standalone="no"?>
<svg width="16" height="16" viewBox="0 0 16 16" fill="none" xmlns="http://www.w3.org/2000/svg">
  <path fill-rule="evenodd" clip-rule="evenodd" d="M11.9 8.5H10.7V10.5H11.9V8.5ZM8.7 10.5H9.9V8.5H8.7V10.5ZM6.9 8.5H5.7V10.5H6.9V8.5ZM4.9 12.5H3.5V14H4.9V12.5ZM4.9 2.5V4H3.5V2.5H4.9ZM12.1 2.5V4H13.5V2.5H12.1ZM12.1 14V12.5H13.5V14H12.1ZM10.5 5.5L8.5 3.5L6.5 5.5L5.5 4.5L8.5 1.5L11.5 4.5L10.5 5.5ZM8.5 13.5L6.5 11.5L5.5 12.5L8.5 15.5L11.5 12.5L10.5 11.5L8.5 13.5Z" fill="#424242"/>
</svg>
